<svg width="72.313" height="71.5" viewBox="12.25 13.25 72.313 71.5" xmlns="http://www.w3.org/2000/svg"><g fill="#5A5959"><path d="M23.444 50.689c1.757 1.379 3.766 2.068 6.026 2.068 2.855-.105 5.234-1.133 7.138-3.077.918-1.377 1.508-2.791 1.77-4.24.157-1.447.236-2.668.236-3.658 0-4.276-1.094-8.588-3.281-12.936-1.026-2.084-2.376-3.781-4.051-5.09-1.71-1.236-3.675-1.891-5.897-1.961-2.939.07-5.384 1.256-7.331 3.553-1.644 2.404-2.43 5.09-2.358 8.057 0 3.924 1.147 8.008 3.444 12.248a16.733 16.733 0 0 0 4.304 5.036zM30.031 67.148a23.029 23.029 0 0 1-2.091-3.299c-.714-1.133-1.07-2.5-1.07-4.098 0-.955.135-1.756.407-2.395a366.3 366.3 0 0 1 .663-1.861 29.846 29.846 0 0 1-3.485.213c-5.169-.061-9.237-1.525-12.205-4.387V70.66a33.422 33.422 0 0 1 8.241-2.561c3.829-.564 7.009-.88 9.54-.951zM32.99 70.213a23.873 23.873 0 0 0-2.435-.107c-.553-.07-1.969 0-4.248.213a46.496 46.496 0 0 0-6.89 1.533c-.553.213-1.33.529-2.331.953-1.002.459-2.021 1.109-3.056 1.959a10.894 10.894 0 0 0-1.78 2.023v2.949a5.018 5.018 0 0 0 5.013 5.014h27.326c.001-.066.005-.133.005-.197 0-2.752-.899-5.15-2.694-7.197-1.9-1.942-4.869-4.321-8.91-7.143z"/><path d="M79.236 13.445H17.263a5.016 5.016 0 0 0-5.013 5.014v6.723c.316-.336.643-.67.985-1 3.083-2.539 6.288-4.195 9.612-4.973 3.29-.67 6.375-1.004 9.253-1.004h21.692l-6.699 3.91h-6.689c.681.422 1.448 1.041 2.299 1.852.817.846 1.618 1.887 2.401 3.121.749 1.164 1.413 2.539 1.992 4.127.476 1.586.715 3.44.715 5.555-.064 3.881-.921 6.984-2.569 9.312a29.44 29.44 0 0 1-2.569 3.121 101.08 101.08 0 0 1-3.199 2.91 15.086 15.086 0 0 0-1.793 2.275c-.646.881-.97 1.902-.97 3.066 0 1.129.332 2.063.994 2.805.563.707 1.11 1.322 1.641 1.854l3.68 3.016a36.958 36.958 0 0 1 6.016 6.189c1.625 2.293 2.47 5.291 2.536 8.994 0 1.531-.198 3.01-.592 4.438h28.25a5.017 5.017 0 0 0 5.014-5.014V18.458a5.017 5.017 0 0 0-5.014-5.013zm3.946 22.117H71.799v11.383h-5.514V35.562H54.902v-5.514h11.383V18.667h5.514v11.381h11.383v5.514z"/></g></svg>