<svg width="72.333" height="72" viewBox="13.5 14 72.333 72" xmlns="http://www.w3.org/2000/svg"><path fill="#5A5959" d="M80.5 14H19.148c-2.934 0-5.315 2.325-5.315 5.188v61.617c0 2.867 2.381 5.195 5.315 5.195H80.5c2.937 0 5.333-2.328 5.333-5.195V19.188c0-2.863-2.396-5.188-5.333-5.188zM35.187 75.354H24.503V40.995h10.684v34.359zm-5.342-39.057a6.19 6.19 0 0 1-6.19-6.194 6.189 6.189 0 1 1 12.379 0 6.194 6.194 0 0 1-6.189 6.194zm45.338 39.057H64.517V58.646c0-3.986-.078-9.111-5.552-9.111-5.558 0-6.405 4.341-6.405 8.822v16.998H41.885v-34.36H52.13v4.692h.146c1.426-2.7 4.91-5.549 10.105-5.549 10.807 0 12.803 7.114 12.803 16.369v18.847h-.001z"/></svg>