<svg width="72" height="72" viewBox="13.833 13.833 72 72" xmlns="http://www.w3.org/2000/svg"><path fill="#5A5959" d="M79 14H21c-3.85 0-7 3.15-7 7v58c0 3.85 3.15 7 7 7h58c3.85 0 7-3.15 7-7V21c0-3.85-3.15-7-7-7zm-7.029 25.205c.021.477.031.956.031 1.435 0 14.639-11.143 31.52-31.522 31.52a31.355 31.355 0 0 1-16.983-4.977 22.2 22.2 0 0 0 2.643.154c5.191 0 9.968-1.771 13.76-4.742-4.849-.091-8.94-3.295-10.35-7.695a11.13 11.13 0 0 0 5.003-.19c-5.068-1.02-8.887-5.497-8.887-10.864l.001-.139a11.064 11.064 0 0 0 5.018 1.386 11.074 11.074 0 0 1-4.929-9.222c0-2.029.547-3.933 1.5-5.57 5.465 6.704 13.628 11.115 22.836 11.577a11.125 11.125 0 0 1-.287-2.525c0-6.12 4.96-11.079 11.08-11.079 3.186 0 6.065 1.346 8.086 3.498a22.148 22.148 0 0 0 7.035-2.687 11.114 11.114 0 0 1-4.871 6.127 22.151 22.151 0 0 0 6.363-1.743 22.397 22.397 0 0 1-5.527 5.736z"/></svg>