<svg width="72.333" height="71.667" viewBox="13.833 14.167 72.333 71.667" xmlns="http://www.w3.org/2000/svg"><g fill="#5A5959"><path d="M45.19 70.391c-.696.984-1.355 1.469-1.985 1.469-.42 0-.659-.245-.735-.733-.03-.101-.03-.483-.03-1.22v-12.76h-3.138V70.85c0 1.226.104 2.051.277 2.576.313.879 1.011 1.289 2.023 1.289 1.154 0 2.34-.697 3.587-2.129v1.891h3.143v-17.33H45.19v13.244zM27.897 54.492h3.694v19.985h3.492V54.492h3.762v-3.274H27.897zM49.281 39.34c1.023 0 1.513-.81 1.513-2.431v-7.368c0-1.619-.49-2.426-1.513-2.426-1.024 0-1.515.807-1.515 2.426v7.368c.001 1.62.491 2.431 1.515 2.431zM57.434 56.936c-1.154 0-2.229.631-3.242 1.879v-7.597H51.05v23.259h3.142v-1.682c1.047 1.299 2.127 1.92 3.242 1.92 1.252 0 2.092-.658 2.512-1.947.209-.734.316-1.889.316-3.492v-6.9c0-1.641-.107-2.786-.316-3.482-.423-1.301-1.26-1.958-2.512-1.958zm-.313 12.585c0 1.565-.461 2.338-1.366 2.338-.517 0-1.04-.246-1.565-.771V60.523c.525-.517 1.049-.763 1.565-.763.906 0 1.366.802 1.366 2.365v7.396zM67.436 56.936c-1.603 0-2.854.59-3.761 1.777-.668.875-.971 2.229-.971 4.08v6.072c0 1.84.342 3.209 1.009 4.074.907 1.183 2.157 1.774 3.801 1.774 1.641 0 2.928-.621 3.797-1.877.381-.56.629-1.188.733-1.883.028-.315.067-1.013.067-2.022v-.461h-3.205c0 1.26-.039 1.957-.068 2.129-.179.838-.631 1.258-1.402 1.258-1.078 0-1.603-.799-1.603-2.403v-3.072h6.278v-3.59c0-1.853-.314-3.205-.971-4.08-.878-1.187-2.128-1.776-3.704-1.776zm1.537 6.834h-3.14v-1.604c0-1.602.524-2.404 1.574-2.404 1.038 0 1.565.803 1.565 2.404v1.604z"/><path d="M79 14H21c-3.85 0-7 3.15-7 7v58c0 3.85 3.15 7 7 7h58c3.85 0 7-3.15 7-7V21c0-3.85-3.15-7-7-7zM56.58 24.47h3.163v12.892c0 .746 0 1.133.039 1.235.069.492.317.743.743.743.635 0 1.302-.492 2.004-1.486V24.47h3.175v17.51h-3.175v-1.91c-1.262 1.449-2.467 2.153-3.625 2.153-1.021 0-1.727-.415-2.043-1.303-.176-.529-.281-1.368-.281-2.604V24.47zm-11.987 5.708c0-1.871.319-3.24.994-4.125.878-1.196 2.114-1.795 3.694-1.795 1.59 0 2.824.599 3.703 1.795.664.885.984 2.254.984 4.125v6.135c0 1.86-.32 3.24-.984 4.119-.879 1.193-2.112 1.792-3.703 1.792-1.581 0-2.817-.599-3.694-1.792-.675-.879-.994-2.259-.994-4.119v-6.135zm-8.486-11.696l2.499 9.227 2.399-9.227h3.558l-4.232 13.982v9.516h-3.52v-9.516c-.318-1.688-1.022-4.158-2.15-7.435-.742-2.18-1.515-4.37-2.256-6.547h3.702zm38.966 57.036c-.634 2.764-2.896 4.801-5.616 5.104-6.443.72-12.965.724-19.457.72-6.493.004-13.014 0-19.457-.72-2.721-.304-4.979-2.343-5.614-5.104-.905-3.936-.905-8.231-.905-12.281 0-4.055.01-8.348.916-12.284.634-2.762 2.893-4.799 5.614-5.103 6.443-.722 12.964-.724 19.457-.722 6.492-.002 13.012 0 19.457.722 2.72.304 4.98 2.341 5.615 5.103.905 3.938.899 8.229.899 12.284.002 4.049-.003 8.345-.909 12.281z"/></g></svg>